<?xml version="1.0" standalone="no"?>
<svg version="1.0" xmlns="http://www.w3.org/2000/svg"
 width="512.000000pt" height="512.000000pt" viewBox="0 0 512.000000 512.000000"
 preserveAspectRatio="xMidYMid meet">
<metadata>
Created by potrace 1.15, written by Peter Selinger 2001-2017
</metadata>
<g transform="translate(0.000000,512.000000) scale(0.100000,-0.100000)"
fill="#000000" stroke="none">
<path d="M3866 4840 c-15 -169 -66 -342 -146 -502 -258 -515 -775 -839 -1394
-874 -116 -7 -310 7 -406 30 l-55 12 65 33 c102 52 234 147 313 225 178 174
269 371 284 611 3 55 3 97 -1 94 -4 -3 -24 -42 -45 -85 -141 -290 -472 -525
-896 -634 -219 -57 -371 -74 -660 -74 -271 0 -439 14 -650 55 -55 10 -106 19
-112 19 -10 0 -13 -43 -13 -184 l0 -184 28 -11 c126 -50 325 -82 553 -88 206
-6 354 4 536 37 l102 18 123 -63 c194 -100 360 -152 577 -180 589 -79 1209
173 1550 630 25 33 48 63 51 68 3 4 40 -4 81 -18 113 -40 339 -93 489 -116
101 -16 201 -22 397 -26 144 -3 274 -2 288 1 l25 6 0 196 0 195 -47 -7 c-90
-15 -480 -8 -628 10 -147 18 -414 71 -427 84 -4 4 6 62 23 127 27 103 32 144
36 283 8 225 -25 476 -41 312z"/>
<path d="M4080 3294 c-156 -54 -275 -74 -465 -80 -93 -3 -201 -2 -240 3 l-70
9 -120 -57 c-570 -271 -1262 -300 -1750 -75 l-73 34 50 -112 c27 -61 203 -455
390 -876 l341 -765 86 -90 c47 -49 147 -147 221 -217 147 -140 154 -143 227
-107 46 22 146 124 141 144 -2 7 -88 95 -193 196 -104 101 -191 186 -192 189
-2 3 25 35 60 73 l62 67 225 -219 c158 -154 232 -220 248 -220 48 -2 151 77
214 164 l29 40 -196 190 -196 190 63 68 63 68 223 -215 c136 -132 231 -216
243 -216 29 0 114 46 157 84 20 19 47 52 59 73 l22 40 -107 104 c-59 57 -171
166 -250 243 l-143 140 66 65 65 66 77 -76 c43 -42 287 -278 542 -524 491
-473 515 -493 587 -479 94 18 152 130 109 213 -8 16 -333 336 -722 711 -389
376 -727 702 -750 724 l-42 41 66 69 65 68 113 -112 114 -113 85 12 c336 47
628 190 677 331 15 41 -3 88 -49 131 l-37 36 -95 -33z"/>
</g>
</svg>
